<svg xmlns="http://www.w3.org/2000/svg" width="48" height="48" viewBox="0 0 48 48" fill="none">
  <circle cx="24" cy="24" r="22" fill="#1976D2"/>
  <path d="M32 16H28V12C28 10.9 27.1 10 26 10H22C20.9 10 20 10.9 20 12V16H16C14.9 16 14 16.9 14 18V22C14 23.1 14.9 24 16 24H20V28C20 29.1 20.9 30 22 30H26C27.1 30 28 29.1 28 28V24H32C33.1 24 34 23.1 34 22V18C34 16.9 33.1 16 32 16ZM32 22H28V28H20V22H16V18H20V12H28V18H32V22Z" fill="white"/>
  <path d="M24 36C28.4183 36 32 32.4183 32 28H16C16 32.4183 19.5817 36 24 36Z" fill="white"/>
</svg> 